<?xml version="1.0" encoding="UTF-8"?>
<svg version="1.1" xmlns="http://www.w3.org/2000/svg" width="160" height="160">
<path d="M0 0 C52.8 0 105.6 0 160 0 C160 52.8 160 105.6 160 160 C107.2 160 54.4 160 0 160 C0 107.2 0 54.4 0 0 Z " fill="#000000" transform="translate(0,0)"/>
<path d="M0 0 C6.8359375 -0.1953125 6.8359375 -0.1953125 9 0 C9.66 0.66 10.32 1.32 11 2 C13.65537372 2.56520003 16.29144713 2.73788198 19 3 C19 3.66 19 4.32 19 5 C18.01 5.33 17.02 5.66 16 6 C15.67 8.31 15.34 10.62 15 13 C14.01 13 13.02 13 12 13 C11.67 12.34 11.34 11.68 11 11 C10.34 11.66 9.68 12.32 9 13 C5.98173347 13.27240673 3.03629378 13.08675125 0 13 C0 8.71 0 4.42 0 0 Z " fill="#ECECEC" transform="translate(95,73)"/>
<path d="M0 0 C0.99 0 1.98 0 3 0 C3 4.62 3 9.24 3 14 C-3.0546875 14.1953125 -3.0546875 14.1953125 -5 14 C-7 12 -7 12 -7.25 9 C-7 6 -7 6 -5 4 C-2.375 3.875 -2.375 3.875 0 4 C0 2.68 0 1.36 0 0 Z " fill="#DCDCDC" transform="translate(82,72)"/>
<path d="M0 0 C2.875 -0.125 2.875 -0.125 6 0 C8 2 8 2 8.25 5 C8 8 8 8 6 10 C3.5 10.25 3.5 10.25 1 10 C-1 8 -1 8 -1.1875 5 C-1 2 -1 2 0 0 Z " fill="#F1F1F1" transform="translate(53,76)"/>
<path d="M0 0 C2.05078125 0.03255208 4.1015625 0.06510417 6.15234375 0.09765625 C5.82234375 1.08765625 5.49234375 2.07765625 5.15234375 3.09765625 C3.50234375 2.76765625 1.85234375 2.43765625 0.15234375 2.09765625 C0.15234375 3.08765625 0.15234375 4.07765625 0.15234375 5.09765625 C3.12234375 5.59265625 3.12234375 5.59265625 6.15234375 6.09765625 C6.77734375 8.47265625 6.77734375 8.47265625 7.15234375 11.09765625 C5.15234375 13.09765625 5.15234375 13.09765625 1.52734375 13.22265625 C0.41359375 13.18140625 -0.70015625 13.14015625 -1.84765625 13.09765625 C-2.17765625 11.77765625 -2.50765625 10.45765625 -2.84765625 9.09765625 C0.12234375 9.59265625 0.12234375 9.59265625 3.15234375 10.09765625 C3.15234375 9.43765625 3.15234375 8.77765625 3.15234375 8.09765625 C2.34796875 7.87078125 1.54359375 7.64390625 0.71484375 7.41015625 C-1.84765625 6.09765625 -1.84765625 6.09765625 -2.72265625 3.53515625 C-2.76390625 2.73078125 -2.80515625 1.92640625 -2.84765625 1.09765625 C-1.84765625 0.09765625 -1.84765625 0.09765625 0 0 Z " fill="#E0E0E0" transform="translate(21.84765625,72.90234375)"/>
<path d="M0 0 C0.94875 0.04125 1.8975 0.0825 2.875 0.125 C3.205 1.775 3.535 3.425 3.875 5.125 C1.895 5.125 -0.085 5.125 -2.125 5.125 C-1.795 5.785 -1.465 6.445 -1.125 7.125 C0.525 7.125 2.175 7.125 3.875 7.125 C3.545 8.115 3.215 9.105 2.875 10.125 C0 10.3125 0 10.3125 -3.125 10.125 C-5.27415785 6.90126323 -5.50786803 5.85796326 -5.125 2.125 C-3.125 0.125 -3.125 0.125 0 0 Z " fill="#F6F6F6" transform="translate(35.125,75.875)"/>
<path d="M0 0 C1.66611905 -0.042721 3.33382885 -0.04063832 5 0 C6 1 6 1 6.0625 4.5625 C6.041875 5.696875 6.02125 6.83125 6 8 C6.66 8 7.32 8 8 8 C8 8.66 8 9.32 8 10 C5.03 10 2.06 10 -1 10 C-1.33 8.68 -1.66 7.36 -2 6 C-0.35 5.01 1.3 4.02 3 3 C1.68 3 0.36 3 -1 3 C-0.67 2.01 -0.34 1.02 0 0 Z " fill="#EBEBEB" transform="translate(117,76)"/>
<path d="M0 0 C3.3 0.33 6.6 0.66 10 1 C10 1.66 10 2.32 10 3 C9.01 3.33 8.02 3.66 7 4 C6.67 6.31 6.34 8.62 6 11 C5.01 11 4.02 11 3 11 C0.49679597 8.49679597 -0.0988845 6.39651226 -1 3 C-0.67 2.01 -0.34 1.02 0 0 Z " fill="#303030" transform="translate(104,75)"/>
<path d="M0 0 C6.15234375 -0.09765625 6.15234375 -0.09765625 8 0 C9 1 9 1 9.09765625 3.06640625 C9.08605469 3.89011719 9.07445313 4.71382813 9.0625 5.5625 C9.05347656 6.38878906 9.04445313 7.21507813 9.03515625 8.06640625 C9.02355469 8.70449219 9.01195313 9.34257813 9 10 C8.01 10 7.02 10 6 10 C6 7.36 6 4.72 6 2 C5.01 2.33 4.02 2.66 3 3 C2.67 5.31 2.34 7.62 2 10 C1.34 10 0.68 10 0 10 C0 6.7 0 3.4 0 0 Z " fill="#E8E8E8" transform="translate(64,76)"/>
<path d="M0 0 C6.15234375 -0.09765625 6.15234375 -0.09765625 8 0 C9 1 9 1 9.09765625 3.06640625 C9.08605469 3.89011719 9.07445312 4.71382813 9.0625 5.5625 C9.05347656 6.38878906 9.04445312 7.21507813 9.03515625 8.06640625 C9.02355469 8.70449219 9.01195312 9.34257813 9 10 C8.01 10 7.02 10 6 10 C6 7.36 6 4.72 6 2 C5.01 2.33 4.02 2.66 3 3 C2.67 5.31 2.34 7.62 2 10 C1.34 10 0.68 10 0 10 C0 6.7 0 3.4 0 0 Z " fill="#E6E6E6" transform="translate(132,76)"/>
<path d="M0 0 C0.94875 0.04125 1.8975 0.0825 2.875 0.125 C3.205 1.115 3.535 2.105 3.875 3.125 C2.225 3.125 0.575 3.125 -1.125 3.125 C-1.125 4.445 -1.125 5.765 -1.125 7.125 C0.525 7.125 2.175 7.125 3.875 7.125 C3.545 8.115 3.215 9.105 2.875 10.125 C0 10.3125 0 10.3125 -3.125 10.125 C-5.27415785 6.90126323 -5.50786803 5.85796326 -5.125 2.125 C-3.125 0.125 -3.125 0.125 0 0 Z " fill="#D8D8D8" transform="translate(46.125,75.875)"/>
<path d="M0 0 C0.66 0 1.32 0 2 0 C2 4.62 2 9.24 2 14 C-0.64 14 -3.28 14 -6 14 C-6.33 12.35 -6.66 10.7 -7 9 C-6.34 9.66 -5.68 10.32 -5 11 C-4.01 11 -3.02 11 -2 11 C-1.34 7.37 -0.68 3.74 0 0 Z " fill="#E6E6E6" transform="translate(83,72)"/>
<path d="M0 0 C3 0.125 3 0.125 4 1.125 C4.04063832 2.79117115 4.042721 4.45888095 4 6.125 C1.69 6.125 -0.62 6.125 -3 6.125 C-3.38218767 4.46885343 -3.71395102 2.80042976 -4 1.125 C-3 0.125 -3 0.125 0 0 Z " fill="#1B1B1B" transform="translate(48,77.875)"/>
<path d="M0 0 C1.01457095 3.62346766 1.57699017 7.26341315 2 11 C1 12 1 12 -0.84765625 12.09765625 C-2.8984375 12.06510417 -4.94921875 12.03255208 -7 12 C-6.67 11.01 -6.34 10.02 -6 9 C-4.35 9 -2.7 9 -1 9 C-1 8.34 -1 7.68 -1 7 C-1.66 6.34 -2.32 5.68 -3 5 C-2.01 3.35 -1.02 1.7 0 0 Z " fill="#F2F2F2" transform="translate(103,74)"/>
<path d="M0 0 C1.32 0.66 2.64 1.32 4 2 C3.34 3.65 2.68 5.3 2 7 C-0.64 6.01 -3.28 5.02 -6 4 C-6 3.01 -6 2.02 -6 1 C-4.7934375 1.0309375 -4.7934375 1.0309375 -3.5625 1.0625 C-1.06645115 1.29633621 -1.06645115 1.29633621 0 0 Z " fill="#0F0F0F" transform="translate(28,74)"/>
<path d="M0 0 C0.99 0 1.98 0 3 0 C3 3.3 3 6.6 3 10 C2.01 10 1.02 10 0 10 C0 6.7 0 3.4 0 0 Z " fill="#DADADA" transform="translate(126,76)"/>
<path d="M0 0 C2.64 0 5.28 0 8 0 C7.34 1.65 6.68 3.3 6 5 C4.35 5 2.7 5 1 5 C0.67 3.35 0.34 1.7 0 0 Z " fill="#8B8B8B" transform="translate(96,73)"/>
<path d="M0 0 C0.625 1.875 0.625 1.875 1 4 C-1 6 -1 6 -4.625 6.125 C-5.73875 6.08375 -6.8525 6.0425 -8 6 C-8.33 4.68 -8.66 3.36 -9 2 C-7.6078125 2.3403125 -7.6078125 2.3403125 -6.1875 2.6875 C-3.03173152 3.36319983 -3.03173152 3.36319983 -1.125 1.5625 C-0.75375 1.046875 -0.3825 0.53125 0 0 Z " fill="#D6D6D6" transform="translate(28,80)"/>
<path d="M0 0 C1.98 0 3.96 0 6 0 C6 0.66 6 1.32 6 2 C5.01 2.33 4.02 2.66 3 3 C2.67 5.31 2.34 7.62 2 10 C1.34 10 0.68 10 0 10 C0 6.7 0 3.4 0 0 Z " fill="#F2F2F2" transform="translate(108,76)"/>
<path d="M0 0 C0.66 0 1.32 0 2 0 C1.67 2.31 1.34 4.62 1 7 C0.67 6.34 0.34 5.68 0 5 C-1.65 5.33 -3.3 5.66 -5 6 C-5.33 5.01 -5.66 4.02 -6 3 C-4.02 3 -2.04 3 0 3 C0 2.01 0 1.02 0 0 Z " fill="#3A3A3A" transform="translate(39,78)"/>
<path d="M0 0 C1.98 0.495 1.98 0.495 4 1 C3.67 2.65 3.34 4.3 3 6 C1.68 5.67 0.36 5.34 -1 5 C-0.67 3.35 -0.34 1.7 0 0 Z " fill="#1F1F1F" transform="translate(55,78)"/>
<path d="M0 0 C0.391875 0.495 0.78375 0.99 1.1875 1.5 C3.55091715 3.45593143 5.01435003 3.24207973 8 3 C7.67 3.99 7.34 4.98 7 6 C5.00045254 6.04254356 2.99958364 6.04080783 1 6 C0 5 0 5 -0.0625 2.4375 C-0.041875 1.633125 -0.02125 0.82875 0 0 Z " fill="#E9E9E9" transform="translate(42,80)"/>
<path d="M0 0 C1.32 0.33 2.64 0.66 4 1 C3.67 2.65 3.34 4.3 3 6 C2.01 6 1.02 6 0 6 C0 4.02 0 2.04 0 0 Z " fill="#101010" transform="translate(78,78)"/>
<path d="M0 0 C2.475 0.99 2.475 0.99 5 2 C5 2.66 5 3.32 5 4 C3.35 3.67 1.7 3.34 0 3 C-0.66 4.32 -1.32 5.64 -2 7 C-2.125 4.625 -2.125 4.625 -2 2 C-1.34 1.34 -0.68 0.68 0 0 Z " fill="#868686" transform="translate(32,76)"/>
<path d="M0 0 C2.31 0.33 4.62 0.66 7 1 C6.67 1.99 6.34 2.98 6 4 C4.02 4 2.04 4 0 4 C0 2.68 0 1.36 0 0 Z " fill="#E7E7E7" transform="translate(32,82)"/>
<path d="M0 0 C2.31 0.66 4.62 1.32 7 2 C6.67 3.32 6.34 4.64 6 6 C5.34 5.34 4.68 4.68 4 4 C2.35008418 3.29289322 0.68437744 2.62056011 -1 2 C-0.67 1.34 -0.34 0.68 0 0 Z " fill="#F4F4F4" transform="translate(21,77)"/>
<path d="M0 0 C2.0625 0.4375 2.0625 0.4375 4 1 C3.67 1.99 3.34 2.98 3 4 C1.35 4.33 -0.3 4.66 -2 5 C-1.125 1.125 -1.125 1.125 0 0 Z " fill="#939393" transform="translate(117,80)"/>
<path d="M0 0 C2.475 0.495 2.475 0.495 5 1 C4.67 1.99 4.34 2.98 4 4 C2.68 4 1.36 4 0 4 C0 2.68 0 1.36 0 0 Z " fill="#0F0F0F" transform="translate(98,80)"/>
<path d="M0 0 C1.98 0 3.96 0 6 0 C6 0.99 6 1.98 6 3 C4.02 3 2.04 3 0 3 C0 2.01 0 1.02 0 0 Z " fill="#B1B1B1" transform="translate(87,78)"/>
<path d="M0 0 C0.99 0.33 1.98 0.66 3 1 C2.25 5.75 2.25 5.75 0 8 C-1 7 -1 7 -1.125 4 C-1 1 -1 1 0 0 Z " fill="#F7F7F7" transform="translate(53,77)"/>
</svg>
