<?xml version="1.0" encoding="UTF-8"?>
<svg version="1.1" xmlns="http://www.w3.org/2000/svg" width="160" height="160">
<path d="M0 0 C52.8 0 105.6 0 160 0 C160 52.8 160 105.6 160 160 C107.2 160 54.4 160 0 160 C0 107.2 0 54.4 0 0 Z " fill="#000000" transform="translate(0,0)"/>
<path d="M0 0 C6.0546875 -0.1953125 6.0546875 -0.1953125 8 0 C8.66 0.66 9.32 1.32 10 2 C9.42307692 8.57692308 9.42307692 8.57692308 8 10 C6.33382885 10.04063832 4.66611905 10.042721 3 10 C3 11.32 3 12.64 3 14 C2.01 14 1.02 14 0 14 C0 9.38 0 4.76 0 0 Z " fill="#D9D9D9" transform="translate(100,63)"/>
<path d="M0 0 C0.66 0 1.32 0 2 0 C2 1.65 2 3.3 2 5 C2.969375 4.814375 3.93875 4.62875 4.9375 4.4375 C6.4534375 4.2209375 6.4534375 4.2209375 8 4 C9 5 9 5 9.09765625 7.06640625 C9.08605469 7.89011719 9.07445312 8.71382812 9.0625 9.5625 C9.05347656 10.38878906 9.04445313 11.21507813 9.03515625 12.06640625 C9.02355469 12.70449219 9.01195312 13.34257813 9 14 C8.01 14 7.02 14 6 14 C6 11.36 6 8.72 6 6 C5.01 6 4.02 6 3 6 C3 8.64 3 11.28 3 14 C2.01 14 1.02 14 0 14 C0 9.38 0 4.76 0 0 Z " fill="#E1E1E1" transform="translate(52,59)"/>
<path d="M0 0 C3.5 0.1875 3.5 0.1875 5.5 1.1875 C5.5 1.8475 5.5 2.5075 5.5 3.1875 C4.365625 3.166875 3.23125 3.14625 2.0625 3.125 C-1.31575674 2.77172523 -1.31575674 2.77172523 -2.5 4.1875 C-2.54063832 5.85367115 -2.542721 7.52138095 -2.5 9.1875 C0.55263664 10.16870464 2.44736336 10.16870464 5.5 9.1875 C4.84 10.5075 4.18 11.8275 3.5 13.1875 C0.125 13.375 0.125 13.375 -3.5 13.1875 C-6.21232939 9.11900591 -5.80699887 7.02273216 -5.5 2.1875 C-3.5 0.1875 -3.5 0.1875 0 0 Z " fill="#E2E2E2" transform="translate(44.5,59.8125)"/>
<path d="M0 0 C6.15234375 -0.09765625 6.15234375 -0.09765625 8 0 C9 1 9 1 9.0625 3.5625 C9.041875 4.366875 9.02125 5.17125 9 6 C8.01 6.495 8.01 6.495 7 7 C6.896875 6.360625 6.79375 5.72125 6.6875 5.0625 C6.3471875 4.0415625 6.3471875 4.0415625 6 3 C5.01 2.67 4.02 2.34 3 2 C3.33 4.31 3.66 6.62 4 9 C3.34 9 2.68 9 2 9 C2 10.65 2 12.3 2 14 C1.34 14 0.68 14 0 14 C0 9.38 0 4.76 0 0 Z " fill="#ECECEC" transform="translate(112,63)"/>
<path d="M0 0 C3.0625 0.25 3.0625 0.25 6 1 C6.33 1.66 6.66 2.32 7 3 C6.34 3.66 5.68 4.32 5 5 C5.66 5.66 6.32 6.32 7 7 C4.70221327 8.3950848 3.5207033 9.07438619 0.8125 8.6875 C-1 8 -1 8 -2 7 C-2.1875 4.5625 -2.1875 4.5625 -2 2 C-1.34 1.34 -0.68 0.68 0 0 Z " fill="#161616" transform="translate(43,62)"/>
<path d="M0 0 C1.99954746 -0.04254356 4.00041636 -0.04080783 6 0 C7.58272601 1.58272601 7.34735747 3.38034003 7.5625 5.5625 C7.64628906 6.38878906 7.73007813 7.21507813 7.81640625 8.06640625 C7.87699219 8.70449219 7.93757813 9.34257813 8 10 C7.01 10 6.02 10 5 10 C5 8.35 5 6.7 5 5 C3.68 5.33 2.36 5.66 1 6 C1.66 7.32 2.32 8.64 3 10 C1.68 9.67 0.36 9.34 -1 9 C-0.67 7.35 -0.34 5.7 0 4 C1.32 4 2.64 4 4 4 C4 3.34 4 2.68 4 2 C2.35 2.33 0.7 2.66 -1 3 C-0.67 2.01 -0.34 1.02 0 0 Z " fill="#EDEDED" transform="translate(90,63)"/>
<path d="M0 0 C1.99954746 -0.04254356 4.00041636 -0.04080783 6 0 C7 1 7 1 7.0625 4.5625 C7.041875 5.696875 7.02125 6.83125 7 8 C7.66 8 8.32 8 9 8 C9 8.66 9 9.32 9 10 C6.03 10 3.06 10 0 10 C0 9.34 0 8.68 0 8 C0.639375 7.87625 1.27875 7.7525 1.9375 7.625 C2.618125 7.41875 3.29875 7.2125 4 7 C4.33 6.34 4.66 5.68 5 5 C3.35 5.66 1.7 6.32 0 7 C0.33 6.01 0.66 5.02 1 4 C1.99 3.67 2.98 3.34 4 3 C2.68 3 1.36 3 0 3 C0 2.01 0 1.02 0 0 Z " fill="#EBEBEB" transform="translate(64,63)"/>
<path d="M0 0 C1.9375 0.3125 1.9375 0.3125 4 1 C4.33 1.99 4.66 2.98 5 4 C5.66 2.68 6.32 1.36 7 0 C6.125 6.875 6.125 6.875 5 8 C3.33382885 8.04063832 1.66611905 8.042721 0 8 C-0.33 9.32 -0.66 10.64 -1 12 C-1.042721 10.33388095 -1.04063832 8.66617115 -1 7 C-0.67 6.67 -0.34 6.34 0 6 C0.04080783 4.00041636 0.04254356 1.99954746 0 0 Z " fill="#BDBDBD" transform="translate(115,65)"/>
<path d="M0 0 C0.66 0 1.32 0 2 0 C2 0.66 2 1.32 2 2 C2.99 2 3.98 2 5 2 C5 2.66 5 3.32 5 4 C4.01 4 3.02 4 2 4 C2 5.98 2 7.96 2 10 C2.99 10 3.98 10 5 10 C5 10.66 5 11.32 5 12 C3.35 11.67 1.7 11.34 0 11 C0 8.69 0 6.38 0 4 C-0.66 4 -1.32 4 -2 4 C-2 3.34 -2 2.68 -2 2 C-1.34 2 -0.68 2 0 2 C0 1.34 0 0.68 0 0 Z " fill="#F8F8F8" transform="translate(75,61)"/>
<path d="M0 0 C0 0.66 0 1.32 0 2 C1.65 1.67 3.3 1.34 5 1 C5 1.66 5 2.32 5 3 C4.071875 3.1546875 4.071875 3.1546875 3.125 3.3125 C0.63473516 3.87525373 0.63473516 3.87525373 -1 7 C-1 6.01 -1 5.02 -1 4 C-3.31 4 -5.62 4 -8 4 C-8 3.01 -8 2.02 -8 1 C-2.25 0 -2.25 0 0 0 Z " fill="#161616" transform="translate(89,64)"/>
<path d="M0 0 C0.99 0.66 1.98 1.32 3 2 C2.34 2 1.68 2 1 2 C1 6.62 1 11.24 1 16 C-0.69057475 12.61885051 -1.45815467 10.3700175 -2.125 6.75 C-2.29257813 5.85796875 -2.46015625 4.9659375 -2.6328125 4.046875 C-2.81457031 3.03367187 -2.81457031 3.03367187 -3 2 C-2.01 1.34 -1.02 0.68 0 0 Z " fill="#0E0E0E" transform="translate(99,61)"/>
<path d="M0 0 C0.33 0 0.66 0 1 0 C1 4.62 1 9.24 1 14 C0.01 14.33 -0.98 14.66 -2 15 C-2 12 -2 12 -1 9 C-1.99 8.67 -2.98 8.34 -4 8 C-2.68 5.36 -1.36 2.72 0 0 Z " fill="#0B0B0B" transform="translate(51,59)"/>
<path d="M0 0 C0.2475 0.61875 0.495 1.2375 0.75 1.875 C2.20628639 4.35068687 3.37812506 4.95125002 6 6 C4.68 6.33 3.36 6.66 2 7 C2 8.32 2 9.64 2 11 C1.01 11 0.02 11 -1 11 C-1.02688151 9.35425434 -1.04634123 7.70838587 -1.0625 6.0625 C-1.07410156 5.14597656 -1.08570312 4.22945313 -1.09765625 3.28515625 C-1 1 -1 1 0 0 Z " fill="#E6E6E6" transform="translate(101,66)"/>
<path d="M0 0 C2.00720923 0.28674418 4.0085944 0.61866701 6 1 C5 3 5 3 4 4 C4.66 4 5.32 4 6 4 C5.67 4.99 5.34 5.98 5 7 C3.35 7.33 1.7 7.66 0 8 C-2 5 -2 5 -1.6875 2.875 C-1 1 -1 1 0 0 Z " fill="#414141" transform="translate(63,64)"/>
<path d="M0 0 C1.99954746 -0.04254356 4.00041636 -0.04080783 6 0 C7 1 7 1 7.0625 4.5625 C7.041875 5.696875 7.02125 6.83125 7 8 C6.67 6.68 6.34 5.36 6 4 C5.34 4 4.68 4 4 4 C4 3.34 4 2.68 4 2 C2.35 2.33 0.7 2.66 -1 3 C-0.67 2.01 -0.34 1.02 0 0 Z " fill="#E1E1E1" transform="translate(90,63)"/>
<path d="M0 0 C-0.66 1.32 -1.32 2.64 -2 4 C-4.31 4 -6.62 4 -9 4 C-9.33 3.34 -9.66 2.68 -10 2 C-3.375 0 -3.375 0 0 0 Z " fill="#DEDEDE" transform="translate(50,69)"/>
<path d="M0 0 C1.32 0.33 2.64 0.66 4 1 C3.67 2.65 3.34 4.3 3 6 C2.01 6 1.02 6 0 6 C0 4.02 0 2.04 0 0 Z " fill="#111111" transform="translate(115,65)"/>
<path d="M0 0 C1.32 0.33 2.64 0.66 4 1 C3.67 2.65 3.34 4.3 3 6 C2.01 6 1.02 6 0 6 C0 4.02 0 2.04 0 0 Z " fill="#101010" transform="translate(103,65)"/>
<path d="M0 0 C0.33 0.66 0.66 1.32 1 2 C1.66 2 2.32 2 3 2 C3 2.66 3 3.32 3 4 C0.03 4 -2.94 4 -6 4 C-6 3.34 -6 2.68 -6 2 C-4.02 1.34 -2.04 0.68 0 0 Z " fill="#E1E1E1" transform="translate(70,69)"/>
<path d="M0 0 C0.66 1.32 1.32 2.64 2 4 C2.66 2.68 3.32 1.36 4 0 C4 2.31 4 4.62 4 7 C3.01 7.495 3.01 7.495 2 8 C2 7.34 2 6.68 2 6 C1.34 6 0.68 6 0 6 C0 4.02 0 2.04 0 0 Z " fill="#383838" transform="translate(71,65)"/>
<path d="M0 0 C1.98 0 3.96 0 6 0 C6 0.99 6 1.98 6 3 C4.02 3 2.04 3 0 3 C0 2.01 0 1.02 0 0 Z " fill="#B0B0B0" transform="translate(81,65)"/>
<path d="M0 0 C2.0625 0.4375 2.0625 0.4375 4 1 C4 2.65 4 4.3 4 6 C3.01 6.495 3.01 6.495 2 7 C1.814375 6.071875 1.814375 6.071875 1.625 5.125 C1.12802644 2.80879168 1.12802644 2.80879168 -1 1 C-0.67 0.67 -0.34 0.34 0 0 Z " fill="#F2F2F2" transform="translate(117,63)"/>
<path d="M0 0 C0.33 0 0.66 0 1 0 C1.66 2.64 2.32 5.28 3 8 C1.68 7.67 0.36 7.34 -1 7 C-1.04254356 5.00045254 -1.04080783 2.99958364 -1 1 C-0.67 0.67 -0.34 0.34 0 0 Z " fill="#F8F8F8" transform="translate(40,63)"/>
</svg>
