<?xml version="1.0" encoding="UTF-8"?>
<svg version="1.1" xmlns="http://www.w3.org/2000/svg" width="160" height="160">
<path d="M0 0 C52.8 0 105.6 0 160 0 C160 52.8 160 105.6 160 160 C107.2 160 54.4 160 0 160 C0 107.2 0 54.4 0 0 Z " fill="#000000" transform="translate(0,0)"/>
<path d="M0 0 C1.258125 -0.04125 2.51625 -0.0825 3.8125 -0.125 C4.52019531 -0.14820313 5.22789063 -0.17140625 5.95703125 -0.1953125 C8 0 8 0 11 2 C11.33 2.99 11.66 3.98 12 5 C12.33 4.34 12.66 3.68 13 3 C15.31 3 17.62 3 20 3 C20 3.66 20 4.32 20 5 C19.01 5.33 18.02 5.66 17 6 C16.67 8.31 16.34 10.62 16 13 C15.236875 12.79375 14.47375 12.5875 13.6875 12.375 C10.78114056 11.66608797 10.78114056 11.66608797 8 14 C5.26009592 13.96856707 2.71582146 13.44521663 0 13 C0 8.71 0 4.42 0 0 Z " fill="#FAFAFA" transform="translate(50,60)"/>
<path d="M0 0 C0.99 0 1.98 0 3 0 C3.33 1.32 3.66 2.64 4 4 C5.32 4 6.64 4 8 4 C8.66 5.65 9.32 7.3 10 9 C10.66 7.35 11.32 5.7 12 4 C12.99 4.33 13.98 4.66 15 5 C14.1905146 6.98040156 13.37732831 8.95929077 12.5625 10.9375 C12.11003906 12.03964844 11.65757813 13.14179687 11.19140625 14.27734375 C10 17 10 17 9 18 C7.33382885 18.04063832 5.66611905 18.042721 4 18 C4.33 16.68 4.66 15.36 5 14 C3.35 13.67 1.7 13.34 0 13 C0 8.71 0 4.42 0 0 Z " fill="#292929" transform="translate(97,59)"/>
<path d="M0 0 C0.99 0 1.98 0 3 0 C3 1.32 3 2.64 3 4 C3.66 4 4.32 4 5 4 C5.33 2.68 5.66 1.36 6 0 C6.99 0 7.98 0 9 0 C9.33 1.32 9.66 2.64 10 4 C10.33 2.68 10.66 1.36 11 0 C11.99 0 12.98 0 14 0 C13.34 3.3 12.68 6.6 12 10 C10.68 9.67 9.36 9.34 8 9 C7.67 7.68 7.34 6.36 7 5 C6.34 6.65 5.68 8.3 5 10 C4.01 10 3.02 10 2 10 C1.34 6.7 0.68 3.4 0 0 Z " fill="#D5D5D5" transform="translate(81,63)"/>
<path d="M0 0 C0.99 0 1.98 0 3 0 C3.66 1.65 4.32 3.3 5 5 C5.66 3.35 6.32 1.7 7 0 C7.99 0.33 8.98 0.66 10 1 C9.29534531 2.98802578 8.56040302 4.96533728 7.8125 6.9375 C7.40644531 8.03964844 7.00039062 9.14179687 6.58203125 10.27734375 C5 13 5 13 2.32421875 13.87890625 C1.55722656 13.91886719 0.79023437 13.95882812 0 14 C0 13.34 0 12.68 0 12 C0.99 12 1.98 12 3 12 C2.01 8.04 1.02 4.08 0 0 Z " fill="#E4E4E4" transform="translate(102,63)"/>
<path d="M0 0 C1.670625 0.061875 1.670625 0.061875 3.375 0.125 C3.375 0.785 3.375 1.445 3.375 2.125 C2.385 2.455 1.395 2.785 0.375 3.125 C0.045 5.435 -0.285 7.745 -0.625 10.125 C-1.388125 9.91875 -2.15125 9.7125 -2.9375 9.5 C-5.84385944 8.79108797 -5.84385944 8.79108797 -8.625 11.125 C-8.17417531 9.66432801 -7.71406463 8.20651968 -7.25 6.75 C-6.99476562 5.93789062 -6.73953125 5.12578125 -6.4765625 4.2890625 C-4.9831722 0.49393302 -4.12238865 0.14215133 0 0 Z " fill="#292929" transform="translate(66.625,62.875)"/>
<path d="M0 0 C1.99954746 -0.04254356 4.00041636 -0.04080783 6 0 C7.58272601 1.58272601 7.34735747 3.38034003 7.5625 5.5625 C7.64628906 6.38878906 7.73007813 7.21507813 7.81640625 8.06640625 C7.87699219 8.70449219 7.93757813 9.34257813 8 10 C5.36 10 2.72 10 0 10 C-0.33 8.35 -0.66 6.7 -1 5 C-0.34 5 0.32 5 1 5 C1 5.99 1 6.98 1 8 C1.99 7.67 2.98 7.34 4 7 C4.33 6.34 4.66 5.68 5 5 C4.01 4.67 3.02 4.34 2 4 C2.66 3.67 3.32 3.34 4 3 C2.35 3 0.7 3 -1 3 C-0.67 2.01 -0.34 1.02 0 0 Z " fill="#E6E6E6" transform="translate(72,63)"/>
<path d="M0 0 C1.66611905 -0.042721 3.33382885 -0.04063832 5 0 C6 1 6 1 6.125 4.5 C6 8 6 8 5 9 C3.33382885 9.04063832 1.66611905 9.042721 0 9 C0 6.03 0 3.06 0 0 Z " fill="#202020" transform="translate(52,62)"/>
<path d="M0 0 C1.32 0.33 2.64 0.66 4 1 C4.36391205 8.39954511 4.36391205 8.39954511 2.75 11.0625 C1 12 1 12 -1.1875 11.6875 C-1.785625 11.460625 -2.38375 11.23375 -3 11 C-2.01 10.34 -1.02 9.68 0 9 C0.36362818 6.79274927 0.36362818 6.79274927 0.1875 4.375 C0.14689453 3.14910156 0.14689453 3.14910156 0.10546875 1.8984375 C0.07066406 1.27195313 0.03585938 0.64546875 0 0 Z " fill="#E1E1E1" transform="translate(57,61)"/>
<path d="M0 0 C0.66 0 1.32 0 2 0 C2 3.96 2 7.92 2 12 C2.66 12 3.32 12 4 12 C4 12.66 4 13.32 4 14 C2.68 13.67 1.36 13.34 0 13 C0 8.71 0 4.42 0 0 Z " fill="#F7F7F7" transform="translate(97,59)"/>
<path d="M0 0 C1.98 0 3.96 0 6 0 C6 0.66 6 1.32 6 2 C5.01 2.33 4.02 2.66 3 3 C2.67 5.31 2.34 7.62 2 10 C1.34 10 0.68 10 0 10 C0 6.7 0 3.4 0 0 Z " fill="#F6F6F6" transform="translate(64,63)"/>
<path d="M0 0 C0.99 0 1.98 0 3 0 C2.34 3.3 1.68 6.6 1 10 C0.01 10 -0.98 10 -2 10 C-2 8.68 -2 7.36 -2 6 C-1.34 6 -0.68 6 0 6 C0 4.02 0 2.04 0 0 Z " fill="#E2E2E2" transform="translate(92,63)"/>
<path d="M0 0 C2 3 2 3 2 7 C1.01 7 0.02 7 -1 7 C-1.33 7.66 -1.66 8.32 -2 9 C-1.7525 8.1028125 -1.7525 8.1028125 -1.5 7.1875 C-0.8885876 4.88655664 -0.8885876 4.88655664 -1 2 C-0.67 1.34 -0.34 0.68 0 0 Z " fill="#1A1A1A" transform="translate(103,68)"/>
<path d="M0 0 C0.99 0.33 1.98 0.66 3 1 C3.875 2.875 3.875 2.875 4 5 C2.5625 6.75 2.5625 6.75 1 8 C-0.35439668 5.29120665 -0.06501451 2.99066732 0 0 Z " fill="#2F2F2F" transform="translate(79,65)"/>
</svg>
