<?xml version="1.0" encoding="UTF-8"?>
<svg version="1.1" xmlns="http://www.w3.org/2000/svg" width="600" height="600">
<path d="M0 0 C198 0 396 0 600 0 C600 198 600 396 600 600 C402 600 204 600 0 600 C0 402 0 204 0 0 Z " fill="#000000" transform="translate(0,0)"/>
<path d="M0 0 C2.31 0.33 4.62 0.66 7 1 C6.43628586 4.26954202 5.50037734 5.82575883 3 8 C3.33 8.515625 3.66 9.03125 4 9.5625 C5.36640318 12.89310774 5.31346835 15.42646082 5 19 C3.30988216 22.71825925 1.44763701 24.85121235 -2 27 C-4.796875 27.51171875 -4.796875 27.51171875 -7.75 27.6875 C-8.73484375 27.75324219 -9.7196875 27.81898438 -10.734375 27.88671875 C-11.48203125 27.92410156 -12.2296875 27.96148437 -13 28 C-13 28.99 -13 29.98 -13 31 C-11.58847656 31.03867187 -11.58847656 31.03867187 -10.1484375 31.078125 C2.66160521 31.66160521 2.66160521 31.66160521 8 37 C8.69971526 41.22214549 9.16939685 45.34637403 6.61328125 48.9609375 C0.6507156 54.26387007 -5.38189282 54.28917598 -13.1171875 54.22265625 C-16.69425796 53.94637845 -19.054233 53.03937715 -22 51 C-22.928125 50.38125 -22.928125 50.38125 -23.875 49.75 C-25.79995302 46.75562863 -25.47572423 44.44900067 -25 41 C-22.5 38.0625 -22.5 38.0625 -20 36 C-20.66 35.34 -21.32 34.68 -22 34 C-22.37942388 31.04049371 -22.45422179 29.59874691 -20.625 27.1875 C-19 26 -19 26 -17 26 C-17 25.34 -17 24.68 -17 24 C-17.99 23.67 -18.98 23.34 -20 23 C-22.27111501 20.01169078 -22.47343993 16.72732169 -22.390625 13.03515625 C-21.68178128 9.34208047 -19.68861189 7.56356018 -17 5 C-14.05173237 4.01724412 -12.07347496 3.86585275 -9 3.875 C-8.13375 3.87242187 -7.2675 3.86984375 -6.375 3.8671875 C-4 4 -4 4 -1 5 C-0.67 3.35 -0.34 1.7 0 0 Z " fill="#F3F3F3" transform="translate(386,241)"/>
<path d="M0 0 C2.97 0 5.94 0 9 0 C9 16.17 9 32.34 9 49 C6.03 49 3.06 49 0 49 C-0.33 48.01 -0.66 47.02 -1 46 C-1.474375 46.474375 -1.94875 46.94875 -2.4375 47.4375 C-6.17218899 49.71474938 -9.66304946 50.08311229 -14 50 C-17.64714843 49.08821289 -19.27911376 47.99741668 -21.4765625 44.95703125 C-25.0140814 38.74166983 -26.13140158 33.07390337 -25 26 C-23.65011344 21.49786439 -21.7498813 18.697564 -18.3125 15.5 C-14.13550316 13.60852973 -10.51820328 13.12779032 -6 14 C-4.35 14.99 -2.7 15.98 -1 17 C-0.67 11.39 -0.34 5.78 0 0 Z " fill="#F1F1F1" transform="translate(446,320)"/>
<path d="M0 0 C2.97 0 5.94 0 9 0 C9.33 0.99 9.66 1.98 10 3 C10.474375 2.505 10.94875 2.01 11.4375 1.5 C15.23396096 -0.72231861 18.70043735 -0.56248759 23 0 C27.15258823 1.75331503 29.4732156 4.3000657 32 8 C34.11329643 14.45185202 34.16310856 22.40498819 31.25 28.5625 C29.65443999 31.50668811 27.8471363 33.22890617 25 35 C22.66796875 35.65234375 22.66796875 35.65234375 20.1875 35.9375 C19.37667969 36.04964844 18.56585938 36.16179687 17.73046875 36.27734375 C15 36 15 36 8 32 C8 37.61 8 43.22 8 49 C5.36 49 2.72 49 0 49 C0 32.83 0 16.66 0 0 Z " fill="#F6F6F6" transform="translate(263,334)"/>
<path d="M0 0 C2.97 0 5.94 0 9 0 C9.33 0.99 9.66 1.98 10 3 C10.66 2.505 11.32 2.01 12 1.5 C15.82017641 -0.41008821 18.80240481 -0.64317991 23 0 C26 1.375 26 1.375 28 3 C28 3.66 28 4.32 28 5 C29.423125 3.7625 29.423125 3.7625 30.875 2.5 C34.74592423 -0.25370626 37.90414484 -0.58952308 42.5703125 -0.6640625 C46.17186696 0.32028518 47.65147366 2.13756026 50 5 C50.56762695 8.3215332 50.56762695 8.3215332 50.48828125 12.05078125 C50.48120651 12.70958786 50.47413177 13.36839447 50.46684265 14.04716492 C50.43900979 16.13680034 50.37630819 18.22368476 50.3125 20.3125 C50.28740205 21.73498714 50.26459148 23.15751659 50.24414062 24.58007812 C50.18922446 28.05426861 50.10303685 31.5268655 50 35 C47.36 35 44.72 35 42 35 C41.970271 33.87972412 41.970271 33.87972412 41.93994141 32.73681641 C41.84491789 29.36584395 41.73514741 25.99551071 41.625 22.625 C41.5940625 21.449375 41.563125 20.27375 41.53125 19.0625 C41.47324219 17.38027344 41.47324219 17.38027344 41.4140625 15.6640625 C41.3826416 14.62717285 41.3512207 13.5902832 41.31884766 12.52197266 C41.24045528 9.83190165 41.24045528 9.83190165 39 8 C36.23764283 7.64585164 34.66949805 7.51762811 32.37182617 9.1730957 C30.49540965 11.67197893 30.57044378 13.43722506 30.48828125 16.54296875 C30.45283203 17.61611328 30.41738281 18.68925781 30.38085938 19.79492188 C30.35830078 20.91447266 30.33574219 22.03402344 30.3125 23.1875 C30.27833984 24.31865234 30.24417969 25.44980469 30.20898438 26.61523438 C30.12643686 29.4100574 30.05730818 32.20456398 30 35 C27.03 35 24.06 35 21 35 C20.67 26.09 20.34 17.18 20 8 C13.45810221 7.23336525 13.45810221 7.23336525 11.09448242 9.66113281 C9.8115344 12.4027438 9.57225391 14.39885927 9.48828125 17.421875 C9.45283203 18.44667969 9.41738281 19.47148437 9.38085938 20.52734375 C9.34702148 22.12255859 9.34702148 22.12255859 9.3125 23.75 C9.27833984 24.82894531 9.24417969 25.90789062 9.20898438 27.01953125 C9.12659337 29.67958377 9.05741355 32.33931035 9 35 C6.03 35 3.06 35 0 35 C0 23.45 0 11.9 0 0 Z " fill="#F6F6F6" transform="translate(203,334)"/>
<path d="M0 0 C3.3 0 6.6 0 10 0 C10 5.61 10 11.22 10 17 C16.6 17 23.2 17 30 17 C30 11.39 30 5.78 30 0 C32.97 0 35.94 0 39 0 C39 15.18 39 30.36 39 46 C36.03 46 33.06 46 30 46 C30 39.07 30 32.14 30 25 C23.07 25 16.14 25 9 25 C9 31.93 9 38.86 9 46 C6.03 46 3.06 46 0 46 C0 30.82 0 15.64 0 0 Z " fill="#F3F3F3" transform="translate(210,234)"/>
<path d="M0 0 C0.86625 0.66 1.7325 1.32 2.625 2 C0.75 6.75 0.75 6.75 -0.375 9 C-2.76064077 8.42415568 -5.04182784 7.77772405 -7.375 7 C-9.43645107 6.931009 -11.50001401 6.91532273 -13.5625 6.9375 C-14.64917969 6.94652344 -15.73585937 6.95554687 -16.85546875 6.96484375 C-17.68691406 6.97644531 -18.51835937 6.98804688 -19.375 7 C-19.375 9.31 -19.375 11.62 -19.375 14 C-17.74691406 14.36351562 -17.74691406 14.36351562 -16.0859375 14.734375 C-14.64047493 15.07227534 -13.19517061 15.41085313 -11.75 15.75 C-10.68072266 15.98589844 -10.68072266 15.98589844 -9.58984375 16.2265625 C-4.82460967 17.36322384 -1.30316153 18.93411783 2.625 22 C5.07904738 26.01571389 5.21233574 30.41318753 4.625 35 C2.74926465 39.58513086 -0.15750196 41.53979281 -4.375 44 C-11.3422303 46.3224101 -17.94165151 45.43998536 -24.45703125 42.22265625 C-27.06168627 40.56225498 -28.7216286 38.58788568 -30.375 36 C-28.725 34.02 -27.075 32.04 -25.375 30 C-24.80652344 30.433125 -24.23804688 30.86625 -23.65234375 31.3125 C-18.76517132 34.83713855 -15.62371366 36.87481991 -9.375 36 C-7.89 35.505 -7.89 35.505 -6.375 35 C-6.045 33.02 -5.715 31.04 -5.375 29 C-9.1226727 26.51786603 -12.53415742 25.29806603 -16.875 24.1875 C-24.06019585 22.03356685 -24.06019585 22.03356685 -26.625 19.25 C-28.705323 15.38654299 -29.79116043 12.39941027 -29.375 8 C-28.0865337 3.77248311 -26.14986237 1.52218986 -22.5 -0.9375 C-15.67385137 -3.30153416 -6.35705989 -3.64557925 0 0 Z " fill="#F3F3F3" transform="translate(172.375,325)"/>
<path d="M0 0 C3.50571 2.65065878 4.88140363 4.86407418 6.5625 8.9375 C6.5625 12.2375 6.5625 15.5375 6.5625 18.9375 C-1.0275 18.9375 -8.6175 18.9375 -16.4375 18.9375 C-14.78672098 22.68920424 -14.78672098 22.68920424 -12.4375 25.9375 C-6.89727344 26.30079354 -4.84692394 26.28258023 -0.4375 22.9375 C2.25 23.5 2.25 23.5 4.5625 24.9375 C5.375 27.0625 5.375 27.0625 5.5625 28.9375 C0.29314809 33.32862659 -3.17786229 35.43137019 -10.05859375 35.25 C-15.66173059 34.51395575 -19.38521626 32.25960008 -22.875 27.875 C-25.87390086 22.23706639 -25.92336563 17.20876558 -25.4375 10.9375 C-23.67233514 5.64200543 -20.79209729 3.18028522 -16.4375 -0.0625 C-11.6139104 -2.4742948 -4.97917814 -1.5390187 0 0 Z " fill="#F2F2F2" transform="translate(409.4375,335.0625)"/>
<path d="M0 0 C2.97 0 5.94 0 9 0 C9.33 1.32 9.66 2.64 10 4 C10.639375 3.34 11.27875 2.68 11.9375 2 C16.04009425 -0.67924522 19.2213679 -0.84822819 24 0 C29.64028777 2.92086331 29.64028777 2.92086331 31 7 C31.0833804 9.13794525 31.10733747 11.27842009 31.09765625 13.41796875 C31.09443359 14.67158203 31.09121094 15.92519531 31.08789062 17.21679688 C31.07951172 18.52712891 31.07113281 19.83746094 31.0625 21.1875 C31.05748317 22.52278481 31.05292059 23.85807141 31.04882812 25.19335938 C31.03702695 28.46228473 31.02056297 31.73111991 31 35 C28.03 35 25.06 35 22 35 C21.505 22.13 21.505 22.13 21 9 C14.50506193 7.27859836 14.50506193 7.27859836 11.60058594 9.59863281 C9.71055663 12.43425335 9.46588698 14.03508606 9.390625 17.421875 C9.35839844 18.44667969 9.32617188 19.47148437 9.29296875 20.52734375 C9.27169922 22.12255859 9.27169922 22.12255859 9.25 23.75 C9.22035156 24.82894531 9.19070313 25.90789062 9.16015625 27.01953125 C9.08953064 29.67976244 9.03679804 32.33912102 9 35 C6.03 35 3.06 35 0 35 C0 23.45 0 11.9 0 0 Z " fill="#F2F2F2" transform="translate(324,245)"/>
<path d="M0 0 C0.96808594 -0.01417969 1.93617188 -0.02835937 2.93359375 -0.04296875 C5.5625 0.1875 5.5625 0.1875 8.5625 2.1875 C7.9025 4.1675 7.2425 6.1475 6.5625 8.1875 C3.9225 8.1875 1.2825 8.1875 -1.4375 8.1875 C-2.0975 10.1675 -2.7575 12.1475 -3.4375 14.1875 C-0.1375 14.1875 3.1625 14.1875 6.5625 14.1875 C6.5625 16.4975 6.5625 18.8075 6.5625 21.1875 C3.2625 21.1875 -0.0375 21.1875 -3.4375 21.1875 C-3.4375 30.4275 -3.4375 39.6675 -3.4375 49.1875 C-6.4075 49.1875 -9.3775 49.1875 -12.4375 49.1875 C-12.4375 40.2775 -12.4375 31.3675 -12.4375 22.1875 C-13.7575 22.1875 -15.0775 22.1875 -16.4375 22.1875 C-16.4375 19.8775 -16.4375 17.5675 -16.4375 15.1875 C-14.7875 15.1875 -13.1375 15.1875 -11.4375 15.1875 C-11.7675 14.5275 -12.0975 13.8675 -12.4375 13.1875 C-12.8125 9.875 -12.8125 9.875 -12.4375 6.1875 C-8.47051067 1.38535502 -6.08727561 0.04042016 0 0 Z " fill="#F2F2F2" transform="translate(355.4375,319.8125)"/>
<path d="M0 0 C2.64 0 5.28 0 8 0 C8.33 13.2 8.66 26.4 9 40 C10.32 40.33 11.64 40.66 13 41 C13.33 43.31 13.66 45.62 14 48 C11.2201184 49.3899408 9.0813674 49.18488204 6 49 C3.38553519 48.12851173 2.33854067 47.55735112 0.90481567 45.19696045 C-0.080076 42.80556945 -0.2421959 41.17330383 -0.22705078 38.59863281 C-0.22689972 37.7380426 -0.22674866 36.87745239 -0.22659302 35.99078369 C-0.21627045 35.07085632 -0.20594788 34.15092896 -0.1953125 33.203125 C-0.1924826 32.25435486 -0.18965271 31.30558472 -0.18673706 30.32806396 C-0.17555448 27.30191361 -0.1504533 24.2760607 -0.125 21.25 C-0.11496772 19.19661886 -0.1058423 17.14323308 -0.09765625 15.08984375 C-0.07562141 10.05978146 -0.04110462 5.02994114 0 0 Z " fill="#FBFBFB" transform="translate(304,321)"/>
<path d="M0 0 C2.97 0 5.94 0 9 0 C9.33 1.32 9.66 2.64 10 4 C10.45375 3.525625 10.9075 3.05125 11.375 2.5625 C14.6711755 -0.60689952 17.58388822 -0.08177985 22 0 C21.67 2.64 21.34 5.28 21 8 C20.06027344 8.14695313 20.06027344 8.14695313 19.1015625 8.296875 C18.28429687 8.44640625 17.46703125 8.5959375 16.625 8.75 C15.81289063 8.88921875 15.00078125 9.0284375 14.1640625 9.171875 C11.88634934 9.79728809 11.88634934 9.79728809 10.890625 11.74023438 C9.89191507 14.2742418 9.68536692 16.26663743 9.5859375 18.984375 C9.52792969 20.38623047 9.52792969 20.38623047 9.46875 21.81640625 C9.42234375 23.26853516 9.42234375 23.26853516 9.375 24.75 C9.31699219 26.22533203 9.31699219 26.22533203 9.2578125 27.73046875 C9.1637203 30.15334289 9.08077848 32.57664545 9 35 C6.03 35 3.06 35 0 35 C0 23.45 0 11.9 0 0 Z " fill="#EFEFEF" transform="translate(278,245)"/>
<path d="M0 0 C2.97 0 5.94 0 9 0 C9 11.55 9 23.1 9 35 C6.03 35 3.06 35 0 35 C0 23.45 0 11.9 0 0 Z " fill="#F3F3F3" transform="translate(367,334)"/>
<path d="M0 0 C2.97 0 5.94 0 9 0 C9 11.55 9 23.1 9 35 C6.03 35 3.06 35 0 35 C0 23.45 0 11.9 0 0 Z " fill="#F1F1F1" transform="translate(324,334)"/>
<path d="M0 0 C2.97 0 5.94 0 9 0 C9 11.55 9 23.1 9 35 C6.03 35 3.06 35 0 35 C0 23.45 0 11.9 0 0 Z " fill="#EFEFEF" transform="translate(184,334)"/>
<path d="M0 0 C2.97 0 5.94 0 9 0 C9 11.55 9 23.1 9 35 C6.03 35 3.06 35 0 35 C0 23.45 0 11.9 0 0 Z " fill="#EFEFEF" transform="translate(305,245)"/>
<path d="M0 0 C2.97 0 5.94 0 9 0 C9 11.55 9 23.1 9 35 C6.03 35 3.06 35 0 35 C0 23.45 0 11.9 0 0 Z " fill="#F1F1F1" transform="translate(260,245)"/>
<path d="M0 0 C2.79469595 2.22142498 3.81629515 3.84663658 4.37890625 7.37890625 C4.57067501 11.52977195 4.31234826 14.34927446 2.5 18.125 C-0.09177776 20.06883332 -0.95097366 20.37340171 -4.0625 20.5625 C-8 20 -8 20 -9.9375 18.1875 C-11.99078976 13.96013873 -12.31695924 10.67514885 -12 6 C-9.20009309 -0.87249877 -7.26531126 -1.75369582 0 0 Z " fill="#0C0C0C" transform="translate(442,342)"/>
<path d="M0 0 C3 2 3 2 4 5 C4.52996391 10.44232168 4.49157975 14.53077792 1 19 C0 20 0 20 -3.3125 20.3125 C-7 20 -7 20 -9.375 18.1875 C-12.3450433 14.18936478 -12.70739433 9.83857719 -12 5 C-8.43287542 -0.58849518 -6.37048585 -1.43010907 0 0 Z " fill="#0B0B0B" transform="translate(283,342)"/>
<path d="M0 0 C4.95 0 9.9 0 15 0 C15.33 1.65 15.66 3.3 16 5 C12.86811623 6.83117102 10.55179405 7.2718057 6.9375 7.25 C6.08027344 7.25515625 5.22304688 7.2603125 4.33984375 7.265625 C2 7 2 7 -1 5 C-0.67 3.35 -0.34 1.7 0 0 Z " fill="#0D0D0D" transform="translate(370,281)"/>
<path d="M0 0 C1.875 1.0625 1.875 1.0625 3 3 C2.8125 6.625 2.8125 6.625 2 10 C-0.78863007 11.39431504 -2.92078868 11.25660094 -6 11 C-8.15502531 7.76746204 -8.46856135 6.74849077 -8 3 C-5.85607122 -0.27231235 -3.76836426 -0.56525464 0 0 Z " fill="#141414" transform="translate(380,251)"/>
<path d="M0 0 C2.5625 0.3125 2.5625 0.3125 4.4375 1.4375 C5.5625 3.3125 5.5625 3.3125 5.3125 6.4375 C4.5625 9.3125 4.5625 9.3125 3.5625 10.3125 C0.125 10.5625 0.125 10.5625 -3.4375 10.3125 C-5.4375 7.3125 -5.4375 7.3125 -5.1875 4.75 C-4.19253762 1.51637226 -3.41216263 0.43745675 0 0 Z " fill="#ECECEC" transform="translate(371.4375,319.6875)"/>
<path d="M0 0 C1.875 1.1875 1.875 1.1875 3 3 C2.73904456 5.67479327 2.1995243 7.60095141 1 10 C-2.375 10.125 -2.375 10.125 -6 10 C-8 8 -8 8 -8.3125 5.5625 C-8 3 -8 3 -6.8125 1.1875 C-4.35092224 -0.42525784 -2.88934264 -0.4334014 0 0 Z " fill="#EAEAEA" transform="translate(331,320)"/>
<path d="M0 0 C2.9375 0.8125 2.9375 0.8125 4.9375 2.8125 C4.6875 5.875 4.6875 5.875 3.9375 8.8125 C1.17499964 10.19375018 -1.00981099 10.00329306 -4.0625 9.8125 C-6.0625 7.8125 -6.0625 7.8125 -6.375 5.375 C-6.0625 2.8125 -6.0625 2.8125 -4.9375 0.9375 C-3.0625 -0.1875 -3.0625 -0.1875 0 0 Z " fill="#EDEDED" transform="translate(265.0625,231.1875)"/>
<path d="M0 0 C2.4375 0.75 2.4375 0.75 4.4375 2.75 C4.6875 5.25 4.6875 5.25 4.4375 7.75 C2.4375 9.75 2.4375 9.75 -1.125 9.9375 C-4.5625 9.75 -4.5625 9.75 -5.5625 8.75 C-5.8125 5.3125 -5.8125 5.3125 -5.5625 1.75 C-2.5625 -0.25 -2.5625 -0.25 0 0 Z " fill="#F1F1F1" transform="translate(189.5625,320.25)"/>
<path d="M0 0 C2.5625 0.3125 2.5625 0.3125 4.375 1.5 C5.96449375 3.9260694 5.92737512 5.46647406 5.5625 8.3125 C3.5625 10.3125 3.5625 10.3125 0.5625 10.5625 C-2.4375 10.3125 -2.4375 10.3125 -4.4375 8.3125 C-4.6875 5.3125 -4.6875 5.3125 -4.4375 2.3125 C-2.4375 0.3125 -2.4375 0.3125 0 0 Z " fill="#F2F2F2" transform="translate(309.4375,230.6875)"/>
<path d="M0 0 C3.5625 0.25 3.5625 0.25 6.5625 2.25 C6.5625 3.9 6.5625 5.55 6.5625 7.25 C1.9425 7.25 -2.6775 7.25 -7.4375 7.25 C-4.67345506 0.33988764 -4.67345506 0.33988764 0 0 Z " fill="#090909" transform="translate(400.4375,340.75)"/>
<path d="M0 0 C0.33 0.66 0.66 1.32 1 2 C-3.625 6.875 -3.625 6.875 -7 8 C-5.50902342 4.2047869 -3.24299151 2.38957269 0 0 Z " fill="#E5E5E5" transform="translate(393,335)"/>
<path d="M0 0 C2.31 0 4.62 0 7 0 C6.67 1.65 6.34 3.3 6 5 C5.34 5 4.68 5 4 5 C4 4.01 4 3.02 4 2 C2.68 1.34 1.36 0.68 0 0 Z " fill="#D0D0D0" transform="translate(293,245)"/>
</svg>
