<?xml version="1.0" encoding="UTF-8"?>
<svg version="1.1" xmlns="http://www.w3.org/2000/svg" width="160" height="160">
<path d="M0 0 C52.8 0 105.6 0 160 0 C160 52.8 160 105.6 160 160 C107.2 160 54.4 160 0 160 C0 107.2 0 54.4 0 0 Z " fill="#000000" transform="translate(0,0)"/>
<path d="M0 0 C0.66 0 1.32 0 2 0 C2 4.62 2 9.24 2 14 C0.72125 14.061875 -0.5575 14.12375 -1.875 14.1875 C-2.59429687 14.22230469 -3.31359375 14.25710937 -4.0546875 14.29296875 C-4.69664063 14.19628906 -5.33859375 14.09960938 -6 14 C-8.14915785 10.77626323 -8.38286803 9.73296326 -8 6 C-6 4 -6 4 -3.375 3.875 C-2.59125 3.91625 -1.8075 3.9575 -1 4 C-0.67 2.68 -0.34 1.36 0 0 Z " fill="#E4E4E4" transform="translate(109,72)"/>
<path d="M0 0 C3.625 0.375 3.625 0.375 7 1 C8.33157895 6.44736842 8.33157895 6.44736842 6.875 8.875 C4.40522151 10.3568671 2.83386167 10.3633156 0 10 C-2 8 -2 8 -2.25 5 C-2 2 -2 2 0 0 Z " fill="#DBDBDB" transform="translate(62,76)"/>
<path d="M0 0 C1.670625 0.061875 1.670625 0.061875 3.375 0.125 C3.375 0.785 3.375 1.445 3.375 2.125 C1.395 2.125 -0.585 2.125 -2.625 2.125 C-1.23183123 4.91133754 0.53480516 5.05992694 3.375 6.125 C4.375 7.125 4.375 7.125 4.4375 9.6875 C4.416875 10.491875 4.39625 11.29625 4.375 12.125 C1.58636993 13.51931504 -0.54578868 13.38160094 -3.625 13.125 C-4.285 12.135 -4.945 11.145 -5.625 10.125 C-3.00386292 10.125 -1.11564888 10.43792445 1.375 11.125 C1.375 10.135 1.375 9.145 1.375 8.125 C0.405625 7.8775 -0.56375 7.63 -1.5625 7.375 C-4.625 6.125 -4.625 6.125 -5.625 4.125 C-5.625 0.12403124 -3.58125362 0.1234915 0 0 Z " fill="#E1E1E1" transform="translate(53.625,72.875)"/>
<path d="M0 0 C0.66 0 1.32 0 2 0 C2.33 2.31 2.66 4.62 3 7 C3.66 7 4.32 7 5 7 C5.33 4.69 5.66 2.38 6 0 C6.99 0 7.98 0 9 0 C9 3.3 9 6.6 9 10 C2.84765625 10.09765625 2.84765625 10.09765625 1 10 C0 9 0 9 -0.09765625 6.93359375 C-0.08605469 6.10988281 -0.07445313 5.28617187 -0.0625 4.4375 C-0.05347656 3.61121094 -0.04445313 2.78492187 -0.03515625 1.93359375 C-0.02355469 1.29550781 -0.01195313 0.65742187 0 0 Z " fill="#DDDDDD" transform="translate(72,76)"/>
<path d="M0 0 C0.94875 0.04125 1.8975 0.0825 2.875 0.125 C3.205 1.115 3.535 2.105 3.875 3.125 C2.225 3.125 0.575 3.125 -1.125 3.125 C-1.125 4.445 -1.125 5.765 -1.125 7.125 C0.525 7.125 2.175 7.125 3.875 7.125 C3.545 8.115 3.215 9.105 2.875 10.125 C0 10.3125 0 10.3125 -3.125 10.125 C-5.27415785 6.90126323 -5.50786803 5.85796326 -5.125 2.125 C-3.125 0.125 -3.125 0.125 0 0 Z " fill="#DDDDDD" transform="translate(96.125,75.875)"/>
<path d="M0 0 C0.66 0.33 1.32 0.66 2 1 C1.67 1.33 1.34 1.66 1 2 C0.95919217 3.99958364 0.95745644 6.00045254 1 8 C-1.31 8 -3.62 8 -6 8 C-6.33 6.35 -6.66 4.7 -7 3 C-4 2 -4 2 -1 3 C-0.67 2.01 -0.34 1.02 0 0 Z " fill="#0A0A0A" transform="translate(101,76)"/>
<path d="M0 0 C0.99 0.33 1.98 0.66 3 1 C3 2.65 3 4.3 3 6 C0.21136993 7.39431504 -1.92078868 7.25660094 -5 7 C-5.66 6.01 -6.32 5.02 -7 4 C-4.37886292 4 -2.49064888 4.31292445 0 5 C0 3.35 0 1.7 0 0 Z " fill="#EAEAEA" transform="translate(55,79)"/>
<path d="M0 0 C1.98 0 3.96 0 6 0 C6 0.66 6 1.32 6 2 C5.01 2.33 4.02 2.66 3 3 C2.67 5.31 2.34 7.62 2 10 C1.34 10 0.68 10 0 10 C0 6.7 0 3.4 0 0 Z " fill="#F6F6F6" transform="translate(84,76)"/>
<path d="M0 0 C0.66 0 1.32 0 2 0 C2 3.3 2 6.6 2 10 C1.67 9.34 1.34 8.68 1 8 C0.34 8 -0.32 8 -1 8 C-1.04241723 5.66705225 -1.04092937 3.33297433 -1 1 C-0.67 0.67 -0.34 0.34 0 0 Z " fill="#232323" transform="translate(82,76)"/>
<path d="M0 0 C0.66 0 1.32 0 2 0 C2 3.3 2 6.6 2 10 C1.01 10.495 1.01 10.495 0 11 C-0.84098656 6.98195309 -1.05404945 3.98196457 0 0 Z " fill="#FAFAFA" transform="translate(109,72)"/>
<path d="M0 0 C0.99 0 1.98 0 3 0 C3 1.98 3 3.96 3 6 C1.68 5.67 0.36 5.34 -1 5 C-0.67 3.35 -0.34 1.7 0 0 Z " fill="#121212" transform="translate(105,78)"/>
<path d="M0 0 C1.32 0.33 2.64 0.66 4 1 C3.67 2.65 3.34 4.3 3 6 C2.01 6 1.02 6 0 6 C0 4.02 0 2.04 0 0 Z " fill="#0E0E0E" transform="translate(63,78)"/>
<path d="M0 0 C0.2475 0.61875 0.495 1.2375 0.75 1.875 C2.20628639 4.35068687 3.37812506 4.95125002 6 6 C6 6.33 6 6.66 6 7 C3.625 7.125 3.625 7.125 1 7 C0.34 6.34 -0.32 5.68 -1 5 C-0.625 2.375 -0.625 2.375 0 0 Z " fill="#F7F7F7" transform="translate(61,79)"/>
<path d="M0 0 C0.66 0 1.32 0 2 0 C2.9765625 6.0546875 2.9765625 6.0546875 3 8 C2.34 8.66 1.68 9.32 1 10 C0 9 0 9 -0.09765625 6.93359375 C-0.08605469 6.10988281 -0.07445313 5.28617187 -0.0625 4.4375 C-0.05347656 3.61121094 -0.04445313 2.78492187 -0.03515625 1.93359375 C-0.02355469 1.29550781 -0.01195313 0.65742187 0 0 Z " fill="#F3F3F3" transform="translate(72,76)"/>
<path d="M0 0 C0.78375 0.04125 1.5675 0.0825 2.375 0.125 C2.375 0.785 2.375 1.445 2.375 2.125 C1.59125 2.2075 0.8075 2.29 0 2.375 C-2.77249104 2.85306339 -2.77249104 2.85306339 -3.9375 5.1875 C-4.2778125 6.1465625 -4.2778125 6.1465625 -4.625 7.125 C-4.75 4.75 -4.75 4.75 -4.625 2.125 C-2.625 0.125 -2.625 0.125 0 0 Z " fill="#C9C9C9" transform="translate(105.625,75.875)"/>
</svg>
